<svg aria-hidden="true" style="position: absolute; width: 0; height: 0; overflow: hidden;" version="1.1" xmlns="http://www.w3.org/2000/svg" xmlns:xlink="http://www.w3.org/1999/xlink">
<defs>
<symbol id="icon-ellipsered" viewBox="0 0 32 32">
<path fill="#dc565b" style="fill: var(--color1, #dc565b)" d="M32 16c0 8.837-7.163 16-16 16s-16-7.163-16-16c0-8.837 7.163-16 16-16s16 7.163 16 16z"></path>
</symbol>
<symbol id="icon-five" viewBox="0 0 19 32">
<path fill="#fff" style="fill: var(--color2, #fff)" d="M16.979 4.915v-2.88h-13.44l-2.534 14.131 2.803 0.154c0.64-0.768 1.37-1.382 2.189-1.843 0.845-0.486 1.805-0.73 2.88-0.73 0.922 0 1.754 0.154 2.496 0.461 0.768 0.307 1.421 0.742 1.958 1.306 0.538 0.538 0.947 1.19 1.229 1.958 0.307 0.742 0.461 1.562 0.461 2.458 0 1.075-0.154 2.022-0.461 2.842-0.307 0.794-0.73 1.459-1.267 1.997-0.512 0.538-1.126 0.947-1.843 1.229-0.691 0.256-1.421 0.384-2.189 0.384-0.819 0-1.574-0.115-2.266-0.346-0.666-0.256-1.254-0.602-1.766-1.037-0.486-0.461-0.883-0.986-1.19-1.574-0.282-0.614-0.448-1.267-0.499-1.958h-3.264c0.026 1.229 0.269 2.33 0.73 3.302s1.088 1.792 1.882 2.458c0.794 0.64 1.702 1.139 2.726 1.498 1.050 0.333 2.163 0.499 3.341 0.499 1.587 0 2.97-0.243 4.147-0.73 1.203-0.512 2.202-1.19 2.995-2.035s1.382-1.805 1.766-2.88c0.41-1.101 0.614-2.227 0.614-3.379 0-1.562-0.23-2.918-0.691-4.070-0.461-1.178-1.088-2.15-1.882-2.918-0.794-0.794-1.728-1.382-2.803-1.766s-2.214-0.576-3.418-0.576c-0.922 0-1.856 0.166-2.803 0.499-0.922 0.307-1.677 0.794-2.266 1.459l-0.077-0.077 1.459-7.834h10.982z"></path>
</symbol>
<symbol id="icon-search" viewBox="0 0 32 32">
<path fill="#8f8f8f" style="fill: var(--color1, #8f8f8f)" d="M30 32c0.25 0 0.5-0.047 0.75-0.141s0.469-0.245 0.656-0.453c0.396-0.396 0.594-0.865 0.594-1.406s-0.198-1.010-0.594-1.406l-5.969-5.969c0.896-1.188 1.594-2.5 2.094-3.938s0.75-2.948 0.75-4.531c0-1.958-0.37-3.797-1.109-5.516s-1.75-3.219-3.031-4.5-2.781-2.292-4.5-3.031c-1.719-0.74-3.547-1.109-5.484-1.109-1.958 0-3.797 0.37-5.516 1.109s-3.219 1.75-4.5 3.031-2.292 2.781-3.031 4.5c-0.74 1.719-1.109 3.557-1.109 5.516 0 1.938 0.37 3.766 1.109 5.484s1.75 3.219 3.031 4.5 2.781 2.292 4.5 3.031c1.719 0.74 3.557 1.109 5.516 1.109 1.583 0 3.094-0.25 4.531-0.75s2.75-1.198 3.938-2.094l5.969 5.969c0.188 0.208 0.406 0.359 0.656 0.453s0.5 0.141 0.75 0.141zM14.156 24.281c-1.417 0-2.74-0.266-3.969-0.797s-2.302-1.255-3.219-2.172-1.641-1.99-2.172-3.219c-0.531-1.229-0.797-2.542-0.797-3.938 0-1.417 0.266-2.74 0.797-3.969s1.255-2.302 2.172-3.219 1.99-1.641 3.219-2.172c1.229-0.531 2.552-0.797 3.969-0.797 1.396 0 2.708 0.266 3.938 0.797s2.302 1.255 3.219 2.172 1.641 1.99 2.172 3.219c0.531 1.229 0.797 2.552 0.797 3.969 0 1.396-0.266 2.708-0.797 3.938s-1.255 2.302-2.172 3.219-1.99 1.641-3.219 2.172c-1.229 0.531-2.542 0.797-3.938 0.797z"></path>
</symbol>
<symbol id="icon-inst" viewBox="0 0 111 32">
<path d="M5.71 0.109c-2.271 0.951-4.767 3.635-5.555 7.006-0.998 4.27 3.156 6.076 3.497 5.485 0.401-0.696-0.744-0.931-0.98-3.147-0.305-2.862 1.026-6.059 2.7-7.463 0.311-0.261 0.296 0.102 0.296 0.773 0 1.2-0.066 11.973-0.066 14.222 0 3.042-0.126 4.003-0.351 4.952-0.229 0.962-0.596 1.612-0.318 1.863 0.311 0.28 1.64-0.386 2.409-1.46 0.922-1.288 1.245-2.834 1.303-4.514 0.070-2.024 0.067-5.237 0.070-7.069 0.003-1.681 0.028-6.602-0.030-9.56-0.014-0.726-2.026-1.487-2.976-1.089zM110.435 16.092c-0.33 0-0.479 0.339-0.604 0.911-0.432 1.987-0.884 2.436-1.47 2.436-0.653 0-1.239-0.984-1.391-2.954-0.118-1.549-0.099-4.4 0.052-7.236 0.031-0.583-0.129-1.159-1.693-1.727-0.673-0.244-1.65-0.604-2.137 0.571-1.375 3.32-1.914 5.956-2.040 7.026-0.007 0.055-0.074 0.067-0.087-0.063-0.081-0.857-0.261-2.416-0.283-5.69-0.004-0.639-0.14-1.183-0.845-1.628-0.457-0.289-1.847-0.8-2.347-0.192-0.433 0.497-0.935 1.835-1.457 3.42-0.424 1.289-0.719 2.16-0.719 2.16s0.005-3.477 0.011-4.796c0.002-0.498-0.339-0.664-0.442-0.694-0.463-0.134-1.376-0.359-1.763-0.359-0.478 0-0.595 0.267-0.595 0.657 0 0.051-0.076 4.578-0.076 7.744 0 0.137 0 0.288 0.001 0.447-0.264 1.455-1.122 3.43-2.054 3.43-0.934 0-1.374-0.826-1.374-4.6 0-2.202 0.066-3.159 0.098-4.751 0.019-0.917 0.055-1.622 0.053-1.781-0.007-0.49-0.854-0.737-1.249-0.829-0.396-0.092-0.741-0.128-1.010-0.112-0.381 0.021-0.65 0.271-0.65 0.615 0 0.184 0.002 0.534 0.002 0.534-0.49-0.77-1.279-1.306-1.803-1.462-1.413-0.419-2.887-0.048-3.999 1.508-0.884 1.236-1.417 2.637-1.626 4.649-0.153 1.471-0.103 2.962 0.169 4.224-0.329 1.423-0.94 2.006-1.61 2.006-0.972 0-1.676-1.586-1.594-4.328 0.054-1.804 0.415-3.070 0.809-4.901 0.168-0.781 0.032-1.189-0.311-1.581-0.314-0.359-0.984-0.543-1.948-0.317-0.686 0.161-1.667 0.334-2.564 0.467 0 0 0.054-0.216 0.099-0.597 0.233-1.998-1.937-1.836-2.63-1.197-0.413 0.381-0.695 0.83-0.802 1.638-0.169 1.282 0.876 1.887 0.876 1.887-0.343 1.57-1.184 3.621-2.052 5.104-0.465 0.795-0.821 1.383-1.28 2.009-0.002-0.233-0.003-0.465-0.004-0.698-0.011-3.301 0.033-5.899 0.053-6.836 0.019-0.917 0.056-1.603 0.054-1.763-0.005-0.359-0.214-0.494-0.65-0.665-0.385-0.152-0.84-0.257-1.313-0.293-0.596-0.046-0.955 0.27-0.946 0.643 0.002 0.071 0.002 0.504 0.002 0.504-0.49-0.77-1.279-1.306-1.803-1.462-1.413-0.419-2.887-0.048-3.999 1.508-0.884 1.236-1.462 2.971-1.626 4.633-0.153 1.549-0.125 2.865 0.084 3.974-0.225 1.11-0.87 2.271-1.601 2.271-0.934 0-1.465-0.826-1.465-4.6 0-2.201 0.066-3.159 0.098-4.751 0.019-0.917 0.055-1.622 0.053-1.781-0.007-0.49-0.855-0.737-1.249-0.829-0.413-0.096-0.769-0.131-1.042-0.11-0.361 0.027-0.615 0.35-0.615 0.591v0.556c-0.49-0.77-1.279-1.306-1.803-1.462-1.413-0.419-2.879-0.042-3.999 1.508-0.73 1.011-1.322 2.131-1.626 4.611-0.088 0.717-0.127 1.388-0.122 2.015-0.291 1.781-1.578 3.834-2.63 3.834-0.616 0-1.202-1.194-1.202-3.74 0-3.391 0.21-8.219 0.245-8.684 0 0 1.33-0.023 1.587-0.026 0.663-0.007 1.264 0.008 2.147-0.037 0.443-0.023 0.87-1.613 0.413-1.81-0.207-0.089-1.672-0.167-2.253-0.179-0.488-0.011-1.848-0.112-1.848-0.112s0.122-3.205 0.151-3.543c0.024-0.282-0.341-0.427-0.55-0.516-0.509-0.215-0.964-0.318-1.504-0.43-0.746-0.154-1.084-0.003-1.15 0.626-0.1 0.955-0.151 3.753-0.151 3.753-0.548 0-2.417-0.107-2.964-0.107-0.509 0-1.058 2.188-0.354 2.214 0.809 0.031 2.219 0.058 3.154 0.087 0 0-0.042 4.908-0.042 6.423 0 0.161 0.001 0.316 0.002 0.467-0.514 2.681-2.327 4.13-2.327 4.13 0.389-1.774-0.406-3.106-1.837-4.234-0.528-0.416-1.569-1.202-2.734-2.064 0 0 0.675-0.665 1.273-2.003 0.424-0.948 0.442-2.033-0.599-2.272-1.72-0.395-3.138 0.868-3.561 2.216-0.328 1.045-0.153 1.82 0.489 2.625 0.047 0.059 0.098 0.119 0.15 0.179-0.388 0.748-0.921 1.756-1.373 2.537-1.254 2.169-2.201 3.885-2.917 3.885-0.572 0-0.564-1.742-0.564-3.373 0-1.406 0.104-3.52 0.187-5.708 0.027-0.724-0.335-1.136-0.941-1.51-0.369-0.227-1.155-0.673-1.611-0.673-0.682 0-2.649 0.093-4.508 5.47-0.234 0.678-0.695 1.913-0.695 1.913l0.040-6.467c0-0.152-0.081-0.298-0.266-0.399-0.313-0.17-1.15-0.518-1.894-0.518-0.354 0-0.531 0.165-0.531 0.494l-0.065 10.117c0 0.769 0.020 1.666 0.096 2.058s0.198 0.712 0.35 0.902c0.152 0.19 0.327 0.334 0.617 0.394 0.269 0.055 1.744 0.245 1.821-0.319 0.092-0.675 0.095-1.406 0.87-4.13 1.205-4.242 2.777-6.311 3.516-7.046 0.129-0.128 0.276-0.136 0.269 0.074-0.031 0.93-0.142 3.254-0.217 5.228-0.2 5.283 0.761 6.262 2.134 6.262 1.051 0 2.532-1.044 4.12-3.687 0.99-1.647 1.951-3.262 2.641-4.426 0.481 0.446 1.021 0.925 1.561 1.437 1.254 1.19 1.666 2.321 1.393 3.394-0.209 0.82-0.996 1.666-2.396 0.844-0.408-0.24-0.583-0.425-0.993-0.695-0.22-0.145-0.557-0.189-0.759-0.036-0.524 0.395-0.824 0.898-0.996 1.521-0.167 0.606 0.44 0.926 1.069 1.206 0.542 0.241 1.705 0.46 2.448 0.484 2.892 0.097 5.209-1.396 6.821-5.248 0.289 3.326 1.517 5.208 3.652 5.208 1.427 0 2.858-1.845 3.484-3.66 0.18 0.74 0.446 1.383 0.789 1.927 1.645 2.606 4.836 2.045 6.439-0.168 0.495-0.684 0.571-0.93 0.571-0.93 0.234 2.090 1.917 2.82 2.88 2.82 1.079 0 2.193-0.51 2.974-2.268 0.090 0.188 0.19 0.37 0.3 0.546 1.645 2.606 4.836 2.045 6.439-0.168 0.075-0.104 0.141-0.198 0.198-0.283l0.047 1.373-1.476 1.353c-2.474 2.267-4.353 3.987-4.491 5.989-0.176 2.553 1.894 3.502 3.462 3.627 1.662 0.132 3.088-0.787 3.964-2.073 0.77-1.132 1.274-3.569 1.237-5.975-0.015-0.964-0.039-2.189-0.058-3.503 0.868-1.008 1.847-2.283 2.747-3.774 0.982-1.626 2.034-3.809 2.572-5.508 0 0 0.914 0.008 1.889-0.056 0.312-0.020 0.401 0.043 0.344 0.272-0.070 0.276-1.232 4.761-0.171 7.749 0.726 2.045 2.364 2.703 3.335 2.703 1.136 0 2.223-0.858 2.806-2.133 0.070 0.142 0.144 0.28 0.224 0.407 1.645 2.606 4.825 2.042 6.439-0.168 0.364-0.499 0.571-0.93 0.571-0.93 0.346 2.163 2.028 2.831 2.992 2.831 1.003 0 1.956-0.411 2.728-2.24 0.032 0.805 0.083 1.463 0.163 1.671 0.049 0.127 0.334 0.286 0.542 0.363 0.918 0.34 1.854 0.18 2.201 0.109 0.24-0.049 0.427-0.241 0.453-0.738 0.067-1.305 0.026-3.498 0.422-5.128 0.664-2.735 1.284-3.796 1.578-4.321 0.164-0.294 0.35-0.343 0.357-0.031 0.014 0.63 0.045 2.481 0.302 4.967 0.189 1.829 0.441 2.91 0.635 3.252 0.554 0.978 1.237 1.024 1.794 1.024 0.354 0 1.095-0.098 1.029-0.72-0.032-0.303 0.024-2.179 0.679-4.873 0.428-1.76 1.14-3.349 1.398-3.931 0.095-0.214 0.139-0.045 0.137-0.012-0.054 1.212-0.176 5.176 0.318 7.344 0.669 2.937 2.605 3.265 3.279 3.265 1.441 0 2.619-1.096 3.015-3.978 0.096-0.695-0.045-1.23-0.469-1.23zM50.106 14.31c-0.083 1.526-0.38 2.801-0.858 3.727-0.864 1.677-2.574 2.208-3.328-0.214-0.544-1.747-0.358-4.129-0.132-5.415 0.336-1.91 1.176-3.263 2.488-3.135 1.348 0.132 2.002 1.863 1.831 5.038zM63.27 14.332c-0.077 1.441-0.45 2.888-0.858 3.705-0.841 1.688-2.599 2.216-3.328-0.214-0.498-1.661-0.379-3.81-0.132-5.164 0.32-1.757 1.095-3.387 2.488-3.387 1.354-0 2.021 1.485 1.831 5.060zM63.614 24.16c-0.018 2.628-0.432 4.932-1.319 5.602-1.258 0.949-2.949 0.237-2.599-1.681 0.31-1.697 1.775-3.43 3.921-5.548 0 0 0.004 0.483-0.004 1.627zM86.339 14.347c-0.073 1.582-0.423 2.818-0.858 3.69-0.841 1.688-2.587 2.212-3.328-0.214-0.404-1.323-0.423-3.532-0.132-5.378 0.296-1.88 1.121-3.301 2.488-3.172 1.348 0.126 1.979 1.863 1.83 5.075z"></path>
</symbol>
<symbol fill="#4094ef" style="fill: var(--color1, #4094ef)" id="icon-circle" viewBox="0 0 32 32">
<path   d="M32 16c0 8.837-7.163 16-16 16s-16-7.163-16-16c0-8.837 7.163-16 16-16s16 7.163 16 16z"></path>
</symbol>
<symbol id="icon-heart" viewBox="0 0 37 32">
<path d="M26.091 0c-5.481 0-7.951 4.091-7.951 4.091s-2.47-4.091-7.951-4.091c-5.635 0-10.189 4.94-10.189 11.039s4.709 9.572 9.418 13.74c7.102 6.33 7.565 6.87 8.723 6.87s1.621-0.54 8.723-6.87c4.786-4.246 9.418-7.719 9.418-13.74 0-6.098-4.554-11.039-10.189-11.039zM25.319 23.003c-4.168 3.705-6.407 5.789-7.179 6.253-0.772-0.54-3.551-3.011-7.179-6.253-4.246-3.782-8.646-6.947-8.646-12.042 0-4.786 3.551-8.723 7.874-8.723 3.165 0 4.863 1.544 6.098 3.242 2.779 3.937 0.926 3.937 3.705 0 1.235-1.698 2.933-3.242 6.098-3.242 4.323 0 7.874 3.937 7.874 8.723 0 5.172-4.4 8.337-8.646 12.042z"></path>
</symbol>
<symbol id="icon-compass" viewBox="0 0 32 32">
<path d="M15.667 0c8.667 0 15.667 7 15.667 15.667s-7 15.667-15.667 15.667c-8.667 0-15.667-7-15.667-15.667s7-15.667 15.667-15.667zM15.667 29.333c7.533 0 13.667-6.133 13.667-13.667s-6.133-13.667-13.667-13.667c-7.533 0-13.667 6.133-13.667 13.667s6.133 13.667 13.667 13.667zM12.733 13.533c0.2-0.333 0.467-0.6 0.8-0.8l9.867-5.4c0.2-0.067 0.4-0.067 0.533 0.067s0.2 0.333 0.067 0.533l-5.4 9.867c-0.2 0.333-0.467 0.6-0.8 0.8l-9.867 5.4c-0.2 0.067-0.4 0.067-0.533-0.067s-0.2-0.333-0.067-0.533l5.4-9.867zM16.867 16.867l2.867-5.2-5.2 2.867 2.333 2.333z"></path>
</symbol>
<symbol id="icon-arrow" viewBox="0 0 37 32">
<path d="M35.497 0h-34.737c-0.695 0-1.004 0.849-0.54 1.312l12.351 12.197 4.246 17.6c0.154 0.695 1.081 0.772 1.389 0.232l17.986-30.182c0.309-0.54-0.077-1.158-0.695-1.158zM4.543 2.316h25.86l-16.056 8.877c-0.309 0.154-0.695 0.077-0.926-0.154l-8.877-8.723zM18.206 26.863l-3.088-12.814c-0.077-0.309 0.077-0.695 0.386-0.849l16.133-8.954-13.432 22.618z"></path>
</symbol>
<symbol id="icon-home" viewBox="0 0 32 32">
<path d="M30.855 32h-10.656c-0.557 0-1.045-0.466-1.045-0.999v-8.191c0-1.732-1.393-3.064-3.204-3.064s-3.204 1.332-3.204 3.064v8.191c0 0.533-0.488 0.999-1.045 0.999h-10.656c-0.557 0-1.045-0.466-1.045-0.999v-15.65c0-0.266 0.139-0.533 0.279-0.733l14.975-14.318c0.418-0.4 1.045-0.4 1.463 0l14.975 14.318c0.279 0.266 0.418 0.733 0.209 1.066 0 0.067-0.070 0.067-0.070 0.133v15.184c0.070 0.533-0.418 0.999-0.975 0.999zM21.243 30.002h8.567v-14.385l-13.791-13.186-13.93 13.319v14.252h8.567v-7.192c0-2.864 2.298-5.061 5.293-5.061s5.293 2.198 5.293 5.061v7.192z"></path>
</symbol>
<symbol id="icon-hash" viewBox="0 0 32 32">
<path d="M29 0h-28c-0.533 0-1 0.467-1 1v28c0 0.533 0.467 1 1 1h28c0.533 0 1-0.467 1-1v-28c0-0.533-0.467-1-1-1zM2 2h7.333v7.333h-7.333v-7.333zM2 11.333h7.333v7.333h-7.333v-7.333zM9.333 28h-7.333v-7.333h7.333v7.333zM18.667 28h-7.333v-7.333h7.333v7.333zM18.667 18.667h-7.333v-7.333h7.333v7.333zM18.667 9.333h-7.333v-7.333h7.333v7.333zM28 28h-7.333v-7.333h7.333v7.333zM28 18.667h-7.333v-7.333h7.333v7.333zM28 9.333h-7.333v-7.333h7.333v7.333z"></path>
</symbol>
<symbol id="icon-blackDot" viewBox="0 0 32 32">
<path d="M32 16c0 8.837-7.163 16-16 16s-16-7.163-16-16c0-8.837 7.163-16 16-16s16 7.163 16 16z"></path>
</symbol>
<symbol id="icon-person" viewBox="0 0 32 32">
<path fill="#8e8e8e" style="fill: var(--color1, #8e8e8e)" d="M27.333 3.367h-7.4c-0.333 0-0.667-0.133-0.933-0.4l-2.667-2.667c-0.4-0.4-1-0.4-1.4 0l-2.667 2.667c-0.267 0.267-0.6 0.4-0.933 0.4h-7.333c-2.2 0-4 1.8-4 4v20c0 2.2 1.8 4 4 4h23.333c2.2 0 4-1.8 4-4v-20c0-2.2-1.8-4-4-4zM7.733 29.367c-0.4 0-0.733-0.4-0.667-0.8 0.467-2.133 2.333-3.733 4.533-3.733h8c2.267 0 4.133 1.6 4.533 3.733 0.067 0.4-0.267 0.8-0.667 0.8h-15.733zM29.333 27.367c0 1.133-0.867 2-2 2h-0.4c-0.333 0-0.6-0.267-0.667-0.6-0.4-3.333-3.2-5.933-6.6-5.933h-8c-3.4 0-6.267 2.6-6.6 5.933-0.067 0.333-0.333 0.6-0.667 0.6h-0.4c-1.133 0-2-0.867-2-2v-20c0-1.133 0.867-2 2-2h7.4c0.867 0 1.733-0.333 2.333-1l1.933-1.933 1.933 1.933c0.6 0.6 1.467 1 2.333 1h7.4c1.133 0 2 0.867 2 2v20zM15.667 8.033c-3.533 0-6.4 2.867-6.4 6.4s2.867 6.4 6.4 6.4c3.533 0 6.4-2.867 6.4-6.4s-2.867-6.4-6.4-6.4zM15.667 18.767c-2.4 0-4.4-1.933-4.4-4.4 0-2.4 1.933-4.4 4.4-4.4s4.4 1.933 4.4 4.4c0 2.4-2 4.4-4.4 4.4z"></path>
</symbol>
<symbol id="icon-Polygon" viewBox="0 0 51 32">
<path fill="#fff" style="fill: var(--color2, #fff)" d="M24.942 32l-24.942-28.8h49.883l-24.942 28.8z"></path>
</symbol>
</defs>
</svg>
